<?xml version="1.0" encoding="utf-8"?>
<svg viewBox="0 0 34.5 34.5" xmlns="http://www.w3.org/2000/svg">
  <path d="M 24.25 0 C 26.586 0 28.5 1.925 28.5 4.25 L 28.5 30.25 C 28.5 32.574 26.586 34.5 24.25 34.5 L 10.25 34.5 C 7.913 34.5 6 32.574 6 30.25 L 6 4.25 C 6 1.925 7.913 0 10.25 0 L 24.25 0 Z M 24.25 2.5 L 10.25 2.5 C 9.297 2.5 8.5 3.302 8.5 4.25 L 8.5 30.25 C 8.5 31.197 9.298 32 10.25 32 L 24.25 32 C 25.202 32 26 31.197 26 30.25 L 26 4.25 C 26 3.303 25.202 2.5 24.25 2.5 Z M 17.25 22 C 19.517 22.002 21.384 23.78 21.495 26.044 L 21.5 26.249 C 21.5 28.599 19.599 30.5 17.25 30.5 C 14.902 30.501 12.999 28.598 13 26.25 C 12.999 23.902 14.902 21.999 17.25 22 Z M 17.25 24.5 C 16.282 24.5 15.5 25.282 15.5 26.25 C 15.5 27.218 16.282 28 17.25 28 C 18.17 28 18.921 27.294 18.994 26.393 L 19 26.25 C 19 25.287 18.215 24.501 17.25 24.501 L 17.25 24.5 Z M 22.237 4.25 C 23.335 4.25 24.223 5.149 24.223 6.25 C 24.223 7.356 23.335 8.25 22.237 8.25 C 21.136 8.247 20.246 7.351 20.25 6.25 C 20.25 5.145 21.138 4.25 22.237 4.25 L 22.237 4.25 Z" style="stroke-width: 1; fill-rule: nonzero; fill: rgb(221, 221, 221);"/>
</svg>