<?xml version="1.0" encoding="utf-8"?>
<svg width="50" height="50" version="1.1" viewBox="0 0 26.458 26.458" xmlns="http://www.w3.org/2000/svg" xmlns:bx="https://boxy-svg.com">
  <defs>
    <bx:export>
      <bx:file format="png" path="icon.png" width="512" height="512"/>
    </bx:export>
  </defs>
  <g style="" transform="matrix(1.03126, 0, 0, 1.03126, -0.413536, -0.413536)">
    <ellipse style="stroke-width: 1; fill: rgb(255, 255, 255);" cx="13.229" cy="13.229" rx="12.828" ry="12.828"/>
    <ellipse style="fill: rgb(246, 196, 7); stroke: rgb(185, 155, 0); stroke-width: 0.77575px;" cx="13.229" cy="13.229" rx="11.973" ry="11.973"/>
    <path d="M 6.678 11.478 C 6.059 11.478 5.562 11.975 5.562 12.593 L 5.562 18.727 C 5.562 19.346 6.059 19.842 6.678 19.842 L 8.633 19.842 C 9.251 19.842 9.747 19.346 9.747 18.727 L 9.747 18.452 L 16.71 18.452 L 16.71 18.727 C 16.71 19.346 17.207 19.842 17.824 19.842 L 19.781 19.842 C 20.399 19.842 20.896 19.346 20.896 18.727 L 20.896 12.593 C 20.896 11.975 20.399 11.478 19.781 11.478 L 17.824 11.478 C 14.647 11.499 11.374 11.487 8.633 11.478 L 6.678 11.478 Z" style="fill: rgb(255, 255, 255); stroke: rgb(185, 155, 0); stroke-miterlimit: 1; stroke-linecap: round; stroke-linejoin: round; stroke-width: 0.77575px;"/>
    <path d="M 6.964 12.878 L 19.508 12.878 L 19.508 18.451 L 18.118 18.451 L 18.118 17.064 L 16.919 17.064 L 16.919 16.547 L 16.488 16.547 L 16.488 17.064 L 15.525 17.064 L 15.525 16.547 L 15.095 16.547 L 15.095 17.064 L 14.131 17.064 L 14.131 16.547 L 13.702 16.547 L 13.702 17.064 L 12.738 17.064 L 12.738 16.547 L 12.306 16.547 L 12.306 17.064 L 11.342 17.064 L 11.342 16.547 L 10.914 16.547 L 10.914 17.064 L 9.949 17.064 L 9.949 16.547 L 9.553 16.547 L 9.553 17.064 L 8.355 17.064 L 8.355 18.451 L 6.964 18.451 L 6.964 12.878 Z" style="stroke: rgb(185, 155, 0); fill: rgb(246, 196, 7); stroke-linecap: round; stroke-linejoin: round; stroke-width: 0.193938px;"/>
    <path d="M 10.459 13.33 C 9.913 13.33 9.469 13.773 9.469 14.319 C 9.469 14.864 9.913 15.308 10.459 15.308 C 11.007 15.308 11.45 14.864 11.45 14.319 C 11.45 13.773 11.007 13.33 10.459 13.33 Z" style="fill: rgb(255, 255, 255); stroke: rgb(185, 155, 0); stroke-width: 0.387875px;"/>
    <path d="M 16.013 13.33 C 15.466 13.33 15.023 13.773 15.023 14.319 C 15.023 14.864 15.466 15.308 16.013 15.308 C 16.56 15.308 17.002 14.864 17.002 14.319 C 17.002 13.773 16.56 13.33 16.013 13.33 Z" style="fill: rgb(255, 255, 255); stroke: rgb(185, 155, 0); stroke-width: 0.387875px;"/>
    <g transform="matrix(0.658601, 0, 0, 0.658601, 4.685596, -5.867753)">
      <path d="M 9.036 20.465 L 8.221 21.262 C 8.091 21.386 8.033 21.566 8.063 21.741 L 8.257 22.866 C 8.316 23.216 8.038 23.501 7.723 23.501 C 7.64 23.501 7.553 23.481 7.471 23.437 L 6.46 22.907 C 6.381 22.865 6.295 22.844 6.208 22.844 C 6.122 22.844 6.033 22.865 5.956 22.907 L 4.946 23.437 C 4.863 23.481 4.777 23.501 4.694 23.501 C 4.379 23.501 4.099 23.216 4.16 22.866 L 4.353 21.741 C 4.383 21.566 4.324 21.386 4.197 21.262 L 3.379 20.465 C 3.059 20.152 3.234 19.605 3.68 19.541 L 4.809 19.377 C 4.987 19.351 5.137 19.241 5.217 19.08 L 5.722 18.057 C 5.821 17.856 6.014 17.755 6.208 17.755 C 6.4 17.755 6.593 17.856 6.694 18.057 L 7.198 19.08 C 7.279 19.241 7.43 19.351 7.607 19.377 L 8.736 19.541 C 9.181 19.605 9.359 20.152 9.036 20.465 Z" id="file_favorite-[#1609]" style="fill: rgb(255, 255, 255); stroke: rgb(185, 155, 0); stroke-width: 0.588938px;" fill-rule="evenodd"/>
      <path d="M 15.799 20.465 L 14.984 21.262 C 14.855 21.386 14.797 21.566 14.826 21.741 L 15.02 22.866 C 15.08 23.216 14.801 23.501 14.486 23.501 C 14.403 23.501 14.317 23.481 14.234 23.437 L 13.224 22.907 C 13.145 22.865 13.058 22.844 12.972 22.844 C 12.885 22.844 12.797 22.865 12.72 22.907 L 11.71 23.437 C 11.627 23.481 11.54 23.501 11.457 23.501 C 11.142 23.501 10.863 23.216 10.923 22.866 L 11.116 21.741 C 11.147 21.566 11.088 21.386 10.96 21.262 L 10.142 20.465 C 9.822 20.152 9.998 19.605 10.444 19.541 L 11.573 19.377 C 11.75 19.351 11.9 19.241 11.981 19.08 L 12.486 18.057 C 12.585 17.856 12.778 17.755 12.972 17.755 C 13.164 17.755 13.357 17.856 13.458 18.057 L 13.962 19.08 C 14.042 19.241 14.193 19.351 14.37 19.377 L 15.5 19.541 C 15.945 19.605 16.123 20.152 15.799 20.465 Z" id="path-1" style="fill: rgb(255, 255, 255); stroke: rgb(185, 155, 0); stroke-width: 0.588938px;" fill-rule="evenodd"/>
      <path d="M 22.564 20.465 L 21.749 21.262 C 21.619 21.386 21.561 21.566 21.591 21.741 L 21.785 22.866 C 21.844 23.216 21.566 23.501 21.251 23.501 C 21.168 23.501 21.081 23.481 20.999 23.437 L 19.988 22.907 C 19.909 22.865 19.823 22.844 19.736 22.844 C 19.65 22.844 19.562 22.865 19.484 22.907 L 18.474 23.437 C 18.391 23.481 18.305 23.501 18.222 23.501 C 17.907 23.501 17.627 23.216 17.688 22.866 L 17.881 21.741 C 17.911 21.566 17.852 21.386 17.725 21.262 L 16.907 20.465 C 16.587 20.152 16.762 19.605 17.208 19.541 L 18.337 19.377 C 18.515 19.351 18.665 19.241 18.745 19.08 L 19.25 18.057 C 19.349 17.856 19.542 17.755 19.736 17.755 C 19.928 17.755 20.122 17.856 20.222 18.057 L 20.726 19.08 C 20.807 19.241 20.958 19.351 21.135 19.377 L 22.264 19.541 C 22.709 19.605 22.887 20.152 22.564 20.465 Z" id="path-2" style="fill: rgb(255, 255, 255); stroke: rgb(185, 155, 0); stroke-width: 0.588938px;" fill-rule="evenodd"/>
    </g>
  </g>
</svg>