<?xml version="1.0" encoding="utf-8"?>
<svg width="50" height="50" version="1.1" viewBox="0 0 26.458 26.458" xmlns="http://www.w3.org/2000/svg" xmlns:bx="https://boxy-svg.com">
  <defs>
    <bx:export>
      <bx:file format="png" path="icon.png" width="128" height="128"/>
    </bx:export>
  </defs>
  <ellipse style="fill: rgb(0, 0, 0); stroke-width: 1;" cx="13.229" cy="13.229" rx="12.828" ry="12.828"/>
  <ellipse style="fill: rgb(255, 255, 255); stroke-width: 1;" cx="13.229" cy="13.229" rx="11.973" ry="11.973"/>
  <ellipse cx="13.229" cy="13.229" rx="11.118" ry="11.118" style="stroke-width: 1;"/>
  <g transform="matrix(0.855531, 0, 0, 0.855531, 5.862451, 1.529187)" style="">
    <path d="M 5.373 13.793 C 4.734 13.793 4.216 14.311 4.216 14.949 C 4.216 15.587 4.734 16.106 5.373 16.106 C 6.013 16.106 6.531 15.587 6.531 14.949 C 6.531 14.311 6.013 13.793 5.373 13.793 Z M 11.865 13.793 C 11.225 13.793 10.708 14.311 10.708 14.949 C 10.708 15.587 11.225 16.106 11.865 16.106 C 12.504 16.106 13.021 15.587 13.021 14.949 C 13.021 14.311 12.504 13.793 11.865 13.793 Z M 1.288 13.265 L 15.95 13.265 L 15.95 19.779 L 14.325 19.779 L 14.325 18.158 L 12.924 18.158 L 12.924 17.554 L 12.42 17.554 L 12.42 18.158 L 11.294 18.158 L 11.294 17.554 L 10.792 17.554 L 10.792 18.158 L 9.665 18.158 L 9.665 17.554 L 9.163 17.554 L 9.163 18.158 L 8.037 18.158 L 8.037 17.554 L 7.532 17.554 L 7.532 18.158 L 6.405 18.158 L 6.405 17.554 L 5.904 17.554 L 5.904 18.158 L 4.777 18.158 L 4.777 17.554 L 4.314 17.554 L 4.314 18.158 L 2.913 18.158 L 2.913 19.779 L 1.288 19.779 L 1.288 13.265 Z M 0.953 11.629 C 0.23 11.629 -0.351 12.21 -0.351 12.932 L -0.351 20.102 C -0.351 20.825 0.23 21.405 0.953 21.405 L 3.238 21.405 C 3.961 21.405 4.541 20.825 4.541 20.102 L 4.541 19.78 L 12.679 19.78 L 12.679 20.102 C 12.679 20.825 13.26 21.405 13.982 21.405 L 16.269 21.405 C 16.991 21.405 17.572 20.825 17.572 20.102 L 17.572 12.932 C 17.572 12.21 16.991 11.629 16.269 11.629 L 13.982 11.629 C 10.268 11.653 6.442 11.639 3.238 11.629 L 0.953 11.629 Z" style="fill: rgb(255, 255, 255);"/>
    <g transform="matrix(0.769815, 0, 0, 0.769815, -1.375584, -8.646021)">
      <path d="M 9.036 20.465 L 8.221 21.262 C 8.091 21.386 8.033 21.566 8.063 21.741 L 8.257 22.866 C 8.316 23.216 8.038 23.501 7.723 23.501 C 7.64 23.501 7.553 23.481 7.471 23.437 L 6.46 22.907 C 6.381 22.865 6.295 22.844 6.208 22.844 C 6.122 22.844 6.033 22.865 5.956 22.907 L 4.946 23.437 C 4.863 23.481 4.777 23.501 4.694 23.501 C 4.379 23.501 4.099 23.216 4.16 22.866 L 4.353 21.741 C 4.383 21.566 4.324 21.386 4.197 21.262 L 3.379 20.465 C 3.059 20.152 3.234 19.605 3.68 19.541 L 4.809 19.377 C 4.987 19.351 5.137 19.241 5.217 19.08 L 5.722 18.057 C 5.821 17.856 6.014 17.755 6.208 17.755 C 6.4 17.755 6.593 17.856 6.694 18.057 L 7.198 19.08 C 7.279 19.241 7.43 19.351 7.607 19.377 L 8.736 19.541 C 9.181 19.605 9.359 20.152 9.036 20.465 Z" id="file_favorite-[#1609]" style="stroke-width: 38; fill: rgb(255, 255, 255);" stroke="none" stroke-width="1" fill-rule="evenodd"/>
      <path d="M 15.799 20.465 L 14.984 21.262 C 14.855 21.386 14.797 21.566 14.826 21.741 L 15.02 22.866 C 15.08 23.216 14.801 23.501 14.486 23.501 C 14.403 23.501 14.317 23.481 14.234 23.437 L 13.224 22.907 C 13.145 22.865 13.058 22.844 12.972 22.844 C 12.885 22.844 12.797 22.865 12.72 22.907 L 11.71 23.437 C 11.627 23.481 11.54 23.501 11.457 23.501 C 11.142 23.501 10.863 23.216 10.923 22.866 L 11.116 21.741 C 11.147 21.566 11.088 21.386 10.96 21.262 L 10.142 20.465 C 9.822 20.152 9.998 19.605 10.444 19.541 L 11.573 19.377 C 11.75 19.351 11.9 19.241 11.981 19.08 L 12.486 18.057 C 12.585 17.856 12.778 17.755 12.972 17.755 C 13.164 17.755 13.357 17.856 13.458 18.057 L 13.962 19.08 C 14.042 19.241 14.193 19.351 14.37 19.377 L 15.5 19.541 C 15.945 19.605 16.123 20.152 15.799 20.465 Z" id="path-1" style="stroke-width: 38; fill: rgb(255, 255, 255);" stroke="none" stroke-width="1" fill-rule="evenodd"/>
      <path d="M 22.564 20.465 L 21.749 21.262 C 21.619 21.386 21.561 21.566 21.591 21.741 L 21.785 22.866 C 21.844 23.216 21.566 23.501 21.251 23.501 C 21.168 23.501 21.081 23.481 20.999 23.437 L 19.988 22.907 C 19.909 22.865 19.823 22.844 19.736 22.844 C 19.65 22.844 19.562 22.865 19.484 22.907 L 18.474 23.437 C 18.391 23.481 18.305 23.501 18.222 23.501 C 17.907 23.501 17.627 23.216 17.688 22.866 L 17.881 21.741 C 17.911 21.566 17.852 21.386 17.725 21.262 L 16.907 20.465 C 16.587 20.152 16.762 19.605 17.208 19.541 L 18.337 19.377 C 18.515 19.351 18.665 19.241 18.745 19.08 L 19.25 18.057 C 19.349 17.856 19.542 17.755 19.736 17.755 C 19.928 17.755 20.122 17.856 20.222 18.057 L 20.726 19.08 C 20.807 19.241 20.958 19.351 21.135 19.377 L 22.264 19.541 C 22.709 19.605 22.887 20.152 22.564 20.465 Z" id="path-2" style="stroke-width: 38; fill: rgb(255, 255, 255);" stroke="none" stroke-width="1" fill-rule="evenodd"/>
    </g>
  </g>
</svg>