<?xml version="1.0" encoding="utf-8"?>
<svg xmlns="http://www.w3.org/2000/svg" viewBox="0 0 512 512" id="signal">
  <path d="M 454.326 43.722 C 471.793 43.722 486.003 57.933 486.003 75.4 L 486.003 436.601 C 486.003 454.068 471.793 468.278 454.326 468.278 C 436.859 468.278 422.649 454.068 422.649 436.601 L 422.649 75.4 C 422.649 57.933 436.859 43.722 454.326 43.722 Z M 506.003 436.601 L 506.003 75.4 C 506.003 46.905 482.821 23.722 454.326 23.722 C 425.831 23.722 402.649 46.905 402.649 75.4 L 402.649 436.601 C 402.649 465.096 425.831 488.278 454.326 488.278 C 482.821 488.278 506.003 465.096 506.003 436.601 Z" style="fill: rgb(153, 153, 153);"/>
  <path d="M 322.11 154.861 C 339.577 154.861 353.787 169.071 353.787 186.538 L 353.787 436.602 C 353.787 454.068 339.577 468.278 322.11 468.278 C 304.643 468.278 290.433 454.068 290.433 436.602 L 290.433 186.538 C 290.433 169.071 304.643 154.861 322.11 154.861 Z M 322.11 488.278 C 350.605 488.278 373.787 465.096 373.787 436.602 L 373.787 186.538 C 373.787 158.044 350.605 134.861 322.11 134.861 C 293.615 134.861 270.433 158.044 270.433 186.538 L 270.433 436.602 C 270.433 465.096 293.615 488.278 322.11 488.278 Z" style="fill: rgb(153, 153, 153);"/>
  <path d="M 241.57 436.601 L 241.57 297.676 C 241.57 269.182 218.387 246 189.893 246 C 161.399 246 138.217 269.182 138.217 297.676 L 138.217 436.601 C 138.217 465.095 161.399 488.278 189.894 488.278 C 218.388 488.278 241.57 465.095 241.57 436.601 Z" style="fill: rgb(153, 153, 153);"/>
  <path d="M 109.354 436.601 L 109.354 408.816 C 109.354 380.321 86.172 357.139 57.677 357.139 C 29.182 357.139 6 380.321 6 408.816 L 6 436.601 C 6 465.096 29.183 488.278 57.678 488.278 C 86.172 488.278 109.354 465.096 109.354 436.601 Z" style="fill: rgb(153, 153, 153);"/>
</svg>