<?xml version="1.0" encoding="utf-8"?>
<svg width="50" height="50" version="1.1" viewBox="0 0 26.458 26.458" xmlns="http://www.w3.org/2000/svg" xmlns:bx="https://boxy-svg.com">
  <defs>
    <bx:export>
      <bx:file format="png" path="icon.png" width="128" height="128"/>
    </bx:export>
  </defs>
  <animateMotion path="M 0 0 L 28.65 0.017" calcMode="spline" dur="10s" fill="freeze" repeatCount="indefinite" keyTimes="0; 0.2" keyPoints="0; 1" keySplines="0.42 0 0.58 1"/>
  <path fill="#f6c407" d="M 0.251 3.978 C 5.992 -0.996 16.549 -0.996 22.285 3.978 L 25.273 3.978 C 25.787 3.971 26.207 4.378 26.207 4.884 L 26.207 23.495 C 26.207 23.993 25.797 24.397 25.292 24.399 L 11.268 24.399 C 10.909 24.407 10.572 24.573 10.35 24.852 L 9.431 25.758 C 9.211 26.036 8.875 26.202 8.516 26.21 L 5.76 26.21 C 5.4 26.202 5.063 26.036 4.842 25.758 L 3.923 24.852 C 3.702 24.574 3.366 24.407 3.008 24.399 L 1.186 24.399 C 0.672 24.408 0.251 24.001 0.251 23.495 L 0.251 3.978 Z" style="stroke-width: 0.499;"/>
  <path d="M 10.383 6.618 C 11.108 6.855 11.87 6.967 12.635 6.95 C 13.399 6.966 14.161 6.855 14.887 6.622 C 14.887 6.622 14.887 7.086 14.887 7.279 C 14.759 7.371 14.615 7.442 14.462 7.492 C 13.871 7.677 13.252 7.764 12.631 7.751 C 12.01 7.764 11.392 7.677 10.8 7.492 C 10.649 7.442 10.508 7.369 10.378 7.279 Z M 10.811 5.174 C 11.402 4.991 12.022 4.903 12.642 4.914 C 13.264 4.902 13.882 4.989 14.474 5.174 C 14.582 5.212 14.688 5.26 14.79 5.315 C 14.689 5.37 14.582 5.418 14.474 5.455 C 13.882 5.64 13.264 5.728 12.642 5.715 C 12.022 5.728 11.402 5.64 10.811 5.455 C 10.702 5.418 10.597 5.37 10.496 5.315 C 10.598 5.26 10.702 5.213 10.811 5.174 Z M 7.276 8.166 L 9.133 7.409 L 9.133 7.427 C 9.2 8.452 10.749 8.983 12.625 8.983 C 14.501 8.983 16.045 8.452 16.111 7.427 L 16.111 7.409 L 17.969 8.166 L 12.625 10.333 Z M 12.017 20.337 L 6.279 18.002 L 6.279 9.083 L 12.017 11.416 Z M 18.998 18.002 L 18.49 18.208 C 18.658 18.312 18.815 18.428 18.958 18.553 C 19.146 18.718 19.319 18.91 19.473 19.122 L 19.675 19.04 C 19.72 18.671 19.892 18.268 20.125 18.035 C 20.157 18.003 20.192 17.972 20.229 17.943 L 20.229 7.759 L 16.125 6.087 L 16.125 5.304 C 16.125 4.221 14.551 3.679 12.635 3.679 C 10.719 3.679 9.145 4.235 9.145 5.304 L 9.145 6.087 L 5.042 7.759 L 5.042 18.815 L 12.635 21.903 L 12.877 21.805 L 12.877 19.143 C 12.897 18.791 13.043 18.39 13.255 18.126 L 13.255 11.416 L 18.998 9.083 Z" style="stroke-width: 0.983; fill: rgb(255, 255, 255);"/>
  <path d="M 4.491 24.33 L 4.482 24.32 C 4.485 24.323 4.488 24.327 4.491 24.33 Z" style="stroke-width: 0.983; fill: rgb(221, 221, 221);"/>
  <path d="M 0.997 4.376 C 3.71 2.084 7.385 0.983 11.307 0.983 C 15.228 0.983 19.059 2.131 21.783 4.521 L 21.923 4.644 L 25.051 4.644 C 25.199 4.619 25.237 4.659 25.34 4.757 C 25.442 4.856 25.482 4.894 25.461 5.04 L 25.461 17.577 C 25.813 17.591 26.206 17.76 26.458 17.977 L 26.458 5.04 C 26.436 4.69 26.269 4.279 26.039 4.056 C 25.809 3.833 25.389 3.677 25.033 3.661 L 22.296 3.661 C 19.398 1.25 15.376 0 11.307 0 C 7.237 0 3.076 1.293 0.169 3.784 L 0 3.928 L 0 23.302 C 0.023 23.652 0.189 24.063 0.419 24.285 C 0.648 24.509 1.068 24.665 1.422 24.682 L 3.203 24.682 C 3.449 24.664 3.575 24.731 3.705 24.935 L 3.714 24.95 L 4.644 25.864 L 4.622 25.839 C 4.925 26.173 5.439 26.425 5.892 26.458 L 8.606 26.458 C 9.059 26.424 9.583 26.171 9.885 25.837 L 9.861 25.864 L 10.787 24.952 L 10.796 24.938 C 10.929 24.732 11.07 24.664 11.317 24.682 L 12.333 24.682 L 12.333 23.699 L 11.295 23.699 C 10.837 23.732 10.316 23.989 10.012 24.331 L 10.047 24.291 L 9.12 25.205 L 9.111 25.218 C 8.977 25.423 8.85 25.494 8.606 25.475 L 5.914 25.475 C 5.667 25.493 5.527 25.425 5.395 25.219 L 5.387 25.206 L 4.457 24.292 L 4.482 24.32 C 4.178 23.983 3.654 23.732 3.203 23.699 L 1.406 23.699 C 1.259 23.723 1.221 23.684 1.118 23.585 C 1.016 23.485 0.975 23.448 0.997 23.302 L 0.997 4.376 Z" style="stroke-width: 0.983; fill: rgb(185, 155, 0);"/>
  <path d="M 16.534 23.078 L 15.489 23.078 C 15.304 23.056 15.041 22.961 14.923 22.844 C 14.806 22.726 14.711 22.463 14.689 22.278 L 14.689 20.188 C 14.711 20.003 14.806 19.74 14.923 19.622 C 15.041 19.505 15.304 19.41 15.489 19.388 L 16.553 19.388 C 16.987 19.42 17.543 19.633 17.839 19.928 C 18.129 20.219 18.379 20.782 18.379 21.233 C 18.379 21.684 18.129 22.247 17.839 22.538 C 17.543 22.833 16.969 23.046 16.534 23.078 Z M 17.131 21.83 C 17.295 21.667 17.379 21.48 17.379 21.233 C 17.379 20.986 17.295 20.799 17.131 20.636 C 16.973 20.477 16.779 20.382 16.515 20.388 L 15.689 20.388 L 15.689 22.078 L 16.534 22.078 C 16.797 22.084 16.973 21.989 17.131 21.83 Z M 19.864 21.056 C 19.9 22.007 19.532 22.899 18.949 23.533 C 18.344 24.144 17.477 24.557 16.534 24.568 L 15.689 24.568 L 15.688 25.684 C 15.672 26.045 15.519 26.383 15.324 26.592 C 15.099 26.795 14.774 26.958 14.444 26.958 C 14.114 26.958 13.79 26.795 13.564 26.592 C 13.369 26.383 13.216 26.073 13.199 25.713 L 13.2 19.172 C 13.216 18.811 13.369 18.473 13.564 18.263 C 13.774 18.068 14.084 17.915 14.444 17.898 L 16.35 17.898 C 17.242 17.907 18.11 18.256 18.746 18.795 C 19.363 19.355 19.804 20.159 19.864 21.056 Z M 18.086 19.547 C 17.59 19.094 17.058 18.869 16.362 18.898 L 14.444 18.898 C 14.35 18.855 14.365 18.861 14.273 18.969 C 14.164 19.062 14.156 19.021 14.198 19.114 L 14.199 25.713 C 14.156 25.807 14.162 25.792 14.27 25.884 C 14.347 25.985 14.32 25.958 14.444 25.958 C 14.568 25.958 14.539 25.987 14.615 25.887 C 14.724 25.794 14.732 25.835 14.69 25.742 L 14.689 24.368 C 14.711 24.183 14.806 23.92 14.923 23.802 C 15.041 23.685 15.304 23.59 15.489 23.568 L 16.534 23.568 C 17.251 23.607 17.764 23.35 18.225 22.843 C 18.71 22.357 18.944 21.839 18.866 21.115 C 18.873 20.446 18.599 19.979 18.086 19.547 Z" style="fill: rgb(255, 255, 255);"/>
  <path d="M 16.534 22.578 L 15.489 22.578 C 15.323 22.578 15.189 22.444 15.189 22.278 L 15.189 20.188 C 15.189 20.022 15.323 19.888 15.489 19.888 L 16.534 19.888 C 16.883 19.901 17.258 20.055 17.485 20.282 C 17.712 20.509 17.879 20.884 17.879 21.233 C 17.879 21.582 17.712 21.957 17.485 22.184 C 17.258 22.411 16.883 22.565 16.534 22.578 Z M 18.416 19.171 C 17.85 18.675 17.15 18.388 16.356 18.398 L 14.444 18.398 C 14.217 18.385 14.069 18.465 13.918 18.617 C 13.766 18.768 13.686 18.916 13.699 19.143 L 13.699 25.713 C 13.686 25.94 13.766 26.088 13.918 26.239 C 14.069 26.391 14.217 26.458 14.444 26.458 C 14.671 26.458 14.819 26.391 14.97 26.239 C 15.122 26.088 15.202 25.94 15.189 25.713 L 15.189 24.368 C 15.189 24.202 15.323 24.068 15.489 24.068 L 16.534 24.068 C 17.364 24.082 18.054 23.747 18.587 23.188 C 19.121 22.628 19.423 21.92 19.365 21.081 C 19.339 20.296 18.981 19.667 18.416 19.171 Z" style="paint-order: stroke; fill: rgb(185, 155, 0);"/>
  <path d="M 26.658 19.143 L 26.658 21.22 C 26.646 21.851 26.386 22.454 25.988 22.853 C 25.632 23.208 25.119 23.451 24.568 23.51 L 24.567 25.684 C 24.551 26.045 24.398 26.383 24.203 26.592 C 23.977 26.795 23.653 26.958 23.323 26.958 C 22.993 26.958 22.668 26.795 22.443 26.592 C 22.248 26.383 22.095 26.073 22.078 25.713 L 22.078 23.51 C 21.527 23.451 21.014 23.208 20.658 22.853 C 20.26 22.454 20 21.864 19.988 21.233 L 19.989 19.172 C 20.005 18.811 20.158 18.473 20.353 18.264 C 20.579 18.061 20.903 17.898 21.233 17.898 C 21.563 17.898 21.888 18.061 22.113 18.264 C 22.308 18.473 22.461 18.783 22.478 19.143 L 22.478 20.169 C 22.472 20.433 22.567 20.627 22.726 20.785 C 22.889 20.949 23.076 21.033 23.323 21.033 C 23.57 21.033 23.757 20.949 23.92 20.785 C 24.079 20.627 24.174 20.451 24.168 20.188 L 24.169 19.172 C 24.185 18.811 24.338 18.473 24.533 18.264 C 24.758 18.061 25.083 17.898 25.413 17.898 C 25.743 17.898 26.067 18.061 26.293 18.264 C 26.488 18.473 26.641 18.783 26.658 19.143 Z M 25.587 18.972 C 25.51 18.871 25.537 18.898 25.413 18.898 C 25.289 18.898 25.318 18.869 25.242 18.969 C 25.133 19.062 25.125 19.021 25.167 19.114 L 25.168 20.188 C 25.136 20.623 24.923 21.197 24.628 21.493 C 24.337 21.783 23.774 22.033 23.323 22.033 C 22.872 22.033 22.309 21.783 22.018 21.493 C 21.723 21.197 21.51 20.641 21.478 20.207 L 21.478 19.143 C 21.521 19.049 21.515 19.064 21.407 18.972 C 21.33 18.871 21.357 18.898 21.233 18.898 C 21.109 18.898 21.138 18.869 21.062 18.969 C 20.953 19.062 20.945 19.021 20.987 19.114 L 20.988 21.233 C 20.95 21.634 21.084 21.864 21.366 22.145 C 21.647 22.427 21.864 22.561 22.265 22.523 C 22.45 22.545 22.726 22.64 22.844 22.757 C 22.961 22.875 23.056 23.138 23.078 23.323 L 23.078 25.713 C 23.035 25.807 23.041 25.792 23.149 25.884 C 23.226 25.985 23.199 25.958 23.323 25.958 C 23.447 25.958 23.418 25.987 23.494 25.887 C 23.603 25.794 23.611 25.835 23.569 25.742 L 23.568 23.323 C 23.59 23.138 23.685 22.875 23.802 22.757 C 23.92 22.64 24.183 22.545 24.368 22.523 C 24.769 22.561 24.999 22.427 25.28 22.145 C 25.562 21.864 25.696 21.647 25.658 21.246 L 25.658 19.143 C 25.701 19.049 25.695 19.064 25.587 18.972 Z" style="fill: rgb(255, 255, 255);"/>
  <path d="M 26.158 19.143 L 26.158 21.233 C 26.171 21.749 25.974 22.159 25.634 22.499 C 25.294 22.839 24.884 23.036 24.368 23.023 C 24.202 23.023 24.068 23.157 24.068 23.323 L 24.068 25.713 C 24.081 25.94 24.001 26.088 23.849 26.239 C 23.698 26.391 23.55 26.458 23.323 26.458 C 23.096 26.458 22.948 26.391 22.797 26.239 C 22.645 26.088 22.565 25.94 22.578 25.713 L 22.578 23.323 C 22.578 23.157 22.444 23.023 22.278 23.023 C 21.762 23.036 21.352 22.839 21.012 22.499 C 20.672 22.159 20.475 21.749 20.488 21.233 L 20.488 19.143 C 20.475 18.916 20.555 18.768 20.707 18.617 C 20.858 18.465 21.006 18.398 21.233 18.398 C 21.46 18.398 21.608 18.465 21.759 18.617 C 21.911 18.768 21.991 18.916 21.978 19.143 L 21.978 20.188 C 21.991 20.537 22.145 20.912 22.372 21.139 C 22.599 21.366 22.974 21.533 23.323 21.533 C 23.672 21.533 24.047 21.366 24.274 21.139 C 24.501 20.912 24.655 20.537 24.668 20.188 L 24.668 19.143 C 24.655 18.916 24.735 18.768 24.887 18.617 C 25.038 18.465 25.186 18.398 25.413 18.398 C 25.64 18.398 25.788 18.465 25.939 18.617 C 26.091 18.768 26.171 18.916 26.158 19.143 Z" style="paint-order: stroke; fill: rgb(185, 155, 0);"/>
  <animateTransform type="rotate" additive="sum" attributeName="transform" values="0;359" begin="0s" dur="3s" keyTimes="0; 1" calcMode="spline" keySplines="0.45 0 0.55 1" repeatCount="indefinite"/>
</svg>