<?xml version="1.0" encoding="utf-8"?>
<svg width="50" height="50" version="1.1" viewBox="0 0 26.458 26.458" xmlns="http://www.w3.org/2000/svg" xmlns:bx="https://boxy-svg.com">
  <defs>
    <bx:export>
      <bx:file format="png" path="icon.png" width="128" height="128"/>
    </bx:export>
  </defs>
  <animateMotion path="M 0 0 L 28.65 0.017" calcMode="spline" dur="10s" fill="freeze" repeatCount="indefinite" keyTimes="0; 0.2" keyPoints="0; 1" keySplines="0.42 0 0.58 1"/>
  <path d="M 10.383 6.618 C 11.108 6.855 11.87 6.967 12.635 6.95 C 13.399 6.966 14.161 6.855 14.887 6.622 C 14.887 6.622 14.887 7.086 14.887 7.279 C 14.759 7.371 14.615 7.442 14.462 7.492 C 13.871 7.677 13.252 7.764 12.631 7.751 C 12.01 7.764 11.392 7.677 10.8 7.492 C 10.649 7.442 10.508 7.369 10.378 7.279 Z M 10.811 5.174 C 11.402 4.991 12.022 4.903 12.642 4.914 C 13.264 4.902 13.882 4.989 14.474 5.174 C 14.582 5.212 14.688 5.26 14.79 5.315 C 14.689 5.37 14.582 5.418 14.474 5.455 C 13.882 5.64 13.264 5.728 12.642 5.715 C 12.022 5.728 11.402 5.64 10.811 5.455 C 10.702 5.418 10.597 5.37 10.496 5.315 C 10.598 5.26 10.702 5.213 10.811 5.174 Z M 7.276 8.166 L 9.133 7.409 L 9.133 7.427 C 9.2 8.452 10.749 8.983 12.625 8.983 C 14.501 8.983 16.045 8.452 16.111 7.427 L 16.111 7.409 L 17.969 8.166 L 12.625 10.333 Z M 12.017 20.337 L 6.279 18.002 L 6.279 9.083 L 12.017 11.416 Z M 18.998 18.002 L 18.49 18.208 C 18.658 18.312 18.815 18.428 18.958 18.553 C 19.146 18.718 19.319 18.91 19.473 19.122 L 19.675 19.04 C 19.72 18.671 19.892 18.268 20.125 18.035 C 20.157 18.003 20.192 17.972 20.229 17.943 L 20.229 7.759 L 16.125 6.087 L 16.125 5.304 C 16.125 4.221 14.551 3.679 12.635 3.679 C 10.719 3.679 9.145 4.235 9.145 5.304 L 9.145 6.087 L 5.042 7.759 L 5.042 18.815 L 12.635 21.903 L 12.877 21.805 L 12.877 19.143 C 12.897 18.791 13.043 18.39 13.255 18.126 L 13.255 11.416 L 18.998 9.083 Z" style="stroke-width: 0.983; fill: rgb(68, 68, 68);"/>
  <path d="M 4.491 24.33 L 4.482 24.32 C 4.485 24.323 4.488 24.327 4.491 24.33 Z" style="stroke-width: 0.983; fill: rgb(68, 68, 68);"/>
  <path d="M 0.997 4.376 C 3.71 2.084 7.385 0.983 11.307 0.983 C 15.228 0.983 19.059 2.131 21.783 4.521 L 21.923 4.644 L 25.051 4.644 C 25.199 4.619 25.237 4.659 25.34 4.757 C 25.442 4.856 25.482 4.894 25.461 5.04 L 25.461 17.577 C 25.813 17.591 26.206 17.76 26.458 17.977 L 26.458 5.04 C 26.436 4.69 26.269 4.279 26.039 4.056 C 25.809 3.833 25.389 3.677 25.033 3.661 L 22.296 3.661 C 19.398 1.25 15.376 0 11.307 0 C 7.237 0 3.076 1.293 0.169 3.784 L 0 3.928 L 0 23.302 C 0.023 23.652 0.189 24.063 0.419 24.285 C 0.648 24.509 1.068 24.665 1.422 24.682 L 3.203 24.682 C 3.449 24.664 3.575 24.731 3.705 24.935 L 3.714 24.95 L 4.644 25.864 L 4.622 25.839 C 4.925 26.173 5.439 26.425 5.892 26.458 L 8.606 26.458 C 9.059 26.424 9.583 26.171 9.885 25.837 L 9.861 25.864 L 10.787 24.952 L 10.796 24.938 C 10.929 24.732 11.07 24.664 11.317 24.682 L 12.333 24.682 L 12.333 23.699 L 11.295 23.699 C 10.837 23.732 10.316 23.989 10.012 24.331 L 10.047 24.291 L 9.12 25.205 L 9.111 25.218 C 8.977 25.423 8.85 25.494 8.606 25.475 L 5.914 25.475 C 5.667 25.493 5.527 25.425 5.395 25.219 L 5.387 25.206 L 4.457 24.292 L 4.482 24.32 C 4.178 23.983 3.654 23.732 3.203 23.699 L 1.406 23.699 C 1.259 23.723 1.221 23.684 1.118 23.585 C 1.016 23.485 0.975 23.448 0.997 23.302 L 0.997 4.376 Z" style="stroke-width: 0.983; fill: rgb(68, 68, 68);"/>
  <path d="M 16.534 22.578 L 15.489 22.578 C 15.323 22.578 15.189 22.444 15.189 22.278 L 15.189 20.188 C 15.189 20.022 15.323 19.888 15.489 19.888 L 16.534 19.888 C 16.883 19.901 17.258 20.055 17.485 20.282 C 17.712 20.509 17.879 20.884 17.879 21.233 C 17.879 21.582 17.712 21.957 17.485 22.184 C 17.258 22.411 16.883 22.565 16.534 22.578 Z M 18.416 19.171 C 17.85 18.675 17.15 18.388 16.356 18.398 L 14.444 18.398 C 14.217 18.385 14.069 18.465 13.918 18.617 C 13.766 18.768 13.686 18.916 13.699 19.143 L 13.699 25.713 C 13.686 25.94 13.766 26.088 13.918 26.239 C 14.069 26.391 14.217 26.458 14.444 26.458 C 14.671 26.458 14.819 26.391 14.97 26.239 C 15.122 26.088 15.202 25.94 15.189 25.713 L 15.189 24.368 C 15.189 24.202 15.323 24.068 15.489 24.068 L 16.534 24.068 C 17.364 24.082 18.054 23.747 18.587 23.188 C 19.121 22.628 19.423 21.92 19.365 21.081 C 19.339 20.296 18.981 19.667 18.416 19.171 Z" style="fill: rgb(68, 68, 68);"/>
  <path d="M 26.158 19.143 L 26.158 21.233 C 26.171 21.749 25.974 22.159 25.634 22.499 C 25.294 22.839 24.884 23.036 24.368 23.023 C 24.202 23.023 24.068 23.157 24.068 23.323 L 24.068 25.713 C 24.081 25.94 24.001 26.088 23.849 26.239 C 23.698 26.391 23.55 26.458 23.323 26.458 C 23.096 26.458 22.948 26.391 22.797 26.239 C 22.645 26.088 22.565 25.94 22.578 25.713 L 22.578 23.323 C 22.578 23.157 22.444 23.023 22.278 23.023 C 21.762 23.036 21.352 22.839 21.012 22.499 C 20.672 22.159 20.475 21.749 20.488 21.233 L 20.488 19.143 C 20.475 18.916 20.555 18.768 20.707 18.617 C 20.858 18.465 21.006 18.398 21.233 18.398 C 21.46 18.398 21.608 18.465 21.759 18.617 C 21.911 18.768 21.991 18.916 21.978 19.143 L 21.978 20.188 C 21.991 20.537 22.145 20.912 22.372 21.139 C 22.599 21.366 22.974 21.533 23.323 21.533 C 23.672 21.533 24.047 21.366 24.274 21.139 C 24.501 20.912 24.655 20.537 24.668 20.188 L 24.668 19.143 C 24.655 18.916 24.735 18.768 24.887 18.617 C 25.038 18.465 25.186 18.398 25.413 18.398 C 25.64 18.398 25.788 18.465 25.939 18.617 C 26.091 18.768 26.171 18.916 26.158 19.143 Z" style="fill: rgb(68, 68, 68);"/>
</svg>