<?xml version="1.0" encoding="utf-8"?>
<svg width="50" height="50" version="1.1" viewBox="0 0 26.458 26.458" xmlns="http://www.w3.org/2000/svg" xmlns:bx="https://boxy-svg.com">
  <defs>
    <bx:export>
      <bx:file format="png" path="icon.png" width="512" height="512"/>
    </bx:export>
  </defs>
  <path fill="#f6c407" d="M 1.827 5.123 C 6.876 0.748 16.161 0.748 21.206 5.123 L 23.834 5.123 C 24.286 5.117 24.655 5.475 24.655 5.92 L 24.655 22.288 C 24.655 22.726 24.295 23.081 23.85 23.083 L 11.516 23.083 C 11.201 23.09 10.904 23.236 10.709 23.481 L 9.901 24.278 C 9.707 24.523 9.412 24.669 9.096 24.676 L 6.672 24.676 C 6.355 24.669 6.059 24.523 5.865 24.278 L 5.056 23.481 C 4.862 23.237 4.567 23.09 4.252 23.083 L 2.649 23.083 C 2.197 23.091 1.827 22.733 1.827 22.288 L 1.827 5.123 Z" style="stroke-linecap: round; stroke: rgb(185, 155, 0);"/>
  <path d="M 10.738 7.445 C 11.376 7.653 12.046 7.752 12.719 7.737 C 13.391 7.751 14.061 7.653 14.699 7.448 C 14.699 7.448 14.699 7.856 14.699 8.026 C 14.587 8.107 14.46 8.169 14.325 8.213 C 13.806 8.376 13.261 8.453 12.715 8.441 C 12.169 8.453 11.625 8.376 11.105 8.213 C 10.972 8.169 10.848 8.105 10.734 8.026 L 10.738 7.445 Z M 11.114 6.175 C 11.634 6.014 12.179 5.936 12.725 5.946 C 13.272 5.936 13.815 6.012 14.336 6.175 C 14.431 6.208 14.524 6.25 14.614 6.299 C 14.525 6.347 14.431 6.389 14.336 6.422 C 13.815 6.585 13.272 6.662 12.725 6.651 C 12.179 6.662 11.634 6.585 11.114 6.422 C 11.019 6.389 10.926 6.347 10.837 6.299 C 10.927 6.25 11.019 6.209 11.114 6.175 Z M 8.005 8.806 L 9.639 8.14 L 9.639 8.156 C 9.698 9.058 11.06 9.525 12.71 9.525 C 14.36 9.525 15.718 9.058 15.776 8.156 L 15.776 8.14 L 17.41 8.806 L 12.71 10.712 L 8.005 8.806 Z M 12.175 19.511 L 7.129 17.457 L 7.129 9.613 L 12.175 11.665 L 12.175 19.511 Z M 18.315 17.457 L 17.868 17.638 C 18.016 17.73 18.154 17.832 18.28 17.942 C 18.445 18.087 18.597 18.256 18.733 18.442 L 18.91 18.37 C 18.95 18.045 19.101 17.691 19.306 17.486 C 19.334 17.458 19.365 17.431 19.397 17.405 L 19.397 8.448 L 15.788 6.978 L 15.788 6.289 C 15.788 5.337 14.404 4.86 12.719 4.86 C 11.034 4.86 9.649 5.349 9.649 6.289 L 9.649 6.978 L 6.041 8.448 L 6.041 18.172 L 12.719 20.888 L 12.931 20.802 L 12.931 18.46 C 12.949 18.151 13.077 17.798 13.264 17.566 L 13.264 11.665 L 18.315 9.613 L 18.315 17.457 Z" style="stroke-width: 0.865; fill: rgb(255, 255, 255);"/>
  <path d="M 5.556 23.022 L 5.548 23.014 C 5.551 23.016 5.553 23.02 5.556 23.022 Z" style="stroke-width: 0.865; fill: rgb(221, 221, 221);"/>
  <path d="M 16.148 21.921 L 15.229 21.921 C 15.066 21.902 14.835 21.818 14.731 21.715 C 14.628 21.612 14.544 21.38 14.525 21.218 L 14.525 19.38 C 14.544 19.217 14.628 18.985 14.731 18.882 C 14.835 18.779 15.066 18.695 15.229 18.676 L 16.164 18.676 C 16.546 18.704 17.035 18.891 17.296 19.151 C 17.551 19.407 17.77 19.902 17.77 20.299 C 17.77 20.695 17.551 21.19 17.296 21.446 C 17.035 21.706 16.53 21.893 16.148 21.921 Z M 16.673 20.824 C 16.817 20.68 16.891 20.516 16.891 20.299 C 16.891 20.081 16.817 19.917 16.673 19.774 C 16.534 19.634 16.363 19.55 16.131 19.555 L 15.405 19.555 L 15.405 21.042 L 16.148 21.042 C 16.379 21.047 16.534 20.963 16.673 20.824 Z M 19.076 20.143 C 19.108 20.979 18.784 21.764 18.272 22.321 C 17.74 22.859 16.977 23.222 16.148 23.232 L 15.405 23.232 L 15.404 24.213 C 15.39 24.531 15.255 24.828 15.084 25.012 C 14.886 25.19 14.6 25.334 14.31 25.334 C 14.019 25.334 13.734 25.19 13.536 25.012 C 13.364 24.828 13.23 24.555 13.215 24.239 L 13.216 18.486 C 13.23 18.168 13.364 17.871 13.536 17.686 C 13.72 17.515 13.993 17.38 14.31 17.365 L 15.986 17.365 C 16.77 17.373 17.534 17.68 18.093 18.154 C 18.636 18.647 19.024 19.354 19.076 20.143 Z M 17.513 18.816 C 17.077 18.417 16.609 18.219 15.996 18.245 L 14.31 18.245 C 14.227 18.207 14.24 18.212 14.159 18.307 C 14.063 18.389 14.056 18.353 14.093 18.435 L 14.094 24.239 C 14.056 24.321 14.062 24.308 14.157 24.389 C 14.224 24.478 14.201 24.454 14.31 24.454 C 14.419 24.454 14.393 24.48 14.46 24.392 C 14.556 24.31 14.563 24.346 14.526 24.264 L 14.525 23.056 C 14.544 22.893 14.628 22.662 14.731 22.558 C 14.835 22.455 15.066 22.372 15.229 22.352 L 16.148 22.352 C 16.778 22.386 17.23 22.16 17.635 21.715 C 18.062 21.287 18.267 20.832 18.199 20.195 C 18.205 19.606 17.964 19.196 17.513 18.816 Z" style="fill: rgb(255, 255, 255); stroke-width: 0.879;"/>
  <path d="M 16.148 21.482 L 15.229 21.482 C 15.083 21.482 14.965 21.364 14.965 21.218 L 14.965 19.38 C 14.965 19.234 15.083 19.116 15.229 19.116 L 16.148 19.116 C 16.455 19.127 16.785 19.263 16.984 19.462 C 17.184 19.662 17.331 19.992 17.331 20.299 C 17.331 20.606 17.184 20.935 16.984 21.135 C 16.785 21.335 16.455 21.47 16.148 21.482 Z M 17.803 18.485 C 17.305 18.049 16.69 17.796 15.991 17.805 L 14.31 17.805 C 14.11 17.794 13.98 17.864 13.847 17.998 C 13.713 18.131 13.643 18.261 13.654 18.46 L 13.654 24.239 C 13.643 24.438 13.713 24.569 13.847 24.701 C 13.98 24.835 14.11 24.894 14.31 24.894 C 14.509 24.894 14.639 24.835 14.772 24.701 C 14.906 24.569 14.976 24.438 14.965 24.239 L 14.965 23.056 C 14.965 22.91 15.083 22.792 15.229 22.792 L 16.148 22.792 C 16.878 22.804 17.485 22.51 17.953 22.018 C 18.423 21.525 18.689 20.903 18.638 20.165 C 18.615 19.474 18.3 18.921 17.803 18.485 Z" style="paint-order: stroke; fill: rgb(185, 155, 0); stroke-width: 0.879;"/>
  <path d="M 25.052 18.46 L 25.052 20.287 C 25.041 20.842 24.813 21.372 24.462 21.723 C 24.149 22.036 23.698 22.249 23.214 22.301 L 23.213 24.213 C 23.199 24.531 23.064 24.828 22.893 25.012 C 22.694 25.19 22.409 25.334 22.119 25.334 C 21.828 25.334 21.543 25.19 21.345 25.012 C 21.173 24.828 21.039 24.555 21.024 24.239 L 21.024 22.301 C 20.539 22.249 20.088 22.036 19.775 21.723 C 19.425 21.372 19.196 20.854 19.186 20.299 L 19.186 18.486 C 19.2 18.168 19.335 17.871 19.507 17.687 C 19.705 17.509 19.99 17.365 20.281 17.365 C 20.571 17.365 20.857 17.509 21.054 17.687 C 21.226 17.871 21.361 18.144 21.375 18.46 L 21.375 19.363 C 21.37 19.595 21.454 19.766 21.594 19.905 C 21.737 20.049 21.901 20.123 22.119 20.123 C 22.336 20.123 22.5 20.049 22.644 19.905 C 22.784 19.766 22.867 19.611 22.862 19.38 L 22.863 18.486 C 22.877 18.168 23.011 17.871 23.183 17.687 C 23.381 17.509 23.667 17.365 23.957 17.365 C 24.247 17.365 24.532 17.509 24.731 17.687 C 24.902 17.871 25.037 18.144 25.052 18.46 Z M 24.11 18.31 C 24.042 18.221 24.066 18.245 23.957 18.245 C 23.848 18.245 23.873 18.219 23.806 18.307 C 23.711 18.389 23.703 18.353 23.74 18.435 L 23.741 19.38 C 23.713 19.762 23.526 20.267 23.266 20.527 C 23.01 20.782 22.515 21.002 22.119 21.002 C 21.722 21.002 21.227 20.782 20.971 20.527 C 20.711 20.267 20.524 19.778 20.496 19.396 L 20.496 18.46 C 20.534 18.378 20.529 18.391 20.434 18.31 C 20.366 18.221 20.39 18.245 20.281 18.245 C 20.171 18.245 20.197 18.219 20.13 18.307 C 20.034 18.389 20.027 18.353 20.064 18.435 L 20.065 20.299 C 20.032 20.651 20.149 20.854 20.397 21.101 C 20.645 21.349 20.835 21.467 21.188 21.433 C 21.351 21.452 21.594 21.536 21.697 21.639 C 21.8 21.743 21.884 21.974 21.903 22.137 L 21.903 24.239 C 21.865 24.321 21.871 24.308 21.966 24.389 C 22.033 24.478 22.01 24.454 22.119 24.454 C 22.228 24.454 22.202 24.48 22.269 24.392 C 22.365 24.31 22.372 24.346 22.335 24.264 L 22.334 22.137 C 22.353 21.974 22.437 21.743 22.54 21.639 C 22.644 21.536 22.875 21.452 23.038 21.433 C 23.39 21.467 23.593 21.349 23.84 21.101 C 24.088 20.854 24.206 20.663 24.172 20.31 L 24.172 18.46 C 24.21 18.378 24.205 18.391 24.11 18.31 Z" style="fill: rgb(255, 255, 255); stroke-width: 0.879;"/>
  <path d="M 24.612 18.46 L 24.612 20.299 C 24.623 20.752 24.45 21.113 24.151 21.412 C 23.852 21.711 23.492 21.884 23.038 21.873 C 22.892 21.873 22.774 21.991 22.774 22.137 L 22.774 24.239 C 22.785 24.438 22.715 24.569 22.581 24.701 C 22.448 24.835 22.318 24.894 22.119 24.894 C 21.919 24.894 21.789 24.835 21.656 24.701 C 21.522 24.569 21.452 24.438 21.463 24.239 L 21.463 22.137 C 21.463 21.991 21.346 21.873 21.2 21.873 C 20.746 21.884 20.385 21.711 20.086 21.412 C 19.787 21.113 19.614 20.752 19.625 20.299 L 19.625 18.46 C 19.614 18.261 19.684 18.131 19.818 17.998 C 19.951 17.864 20.081 17.805 20.281 17.805 C 20.48 17.805 20.61 17.864 20.743 17.998 C 20.877 18.131 20.947 18.261 20.936 18.46 L 20.936 19.38 C 20.947 19.686 21.083 20.016 21.282 20.216 C 21.482 20.416 21.812 20.562 22.119 20.562 C 22.426 20.562 22.755 20.416 22.955 20.216 C 23.155 20.016 23.29 19.686 23.302 19.38 L 23.302 18.46 C 23.29 18.261 23.36 18.131 23.494 17.998 C 23.627 17.864 23.757 17.805 23.957 17.805 C 24.156 17.805 24.287 17.864 24.419 17.998 C 24.553 18.131 24.623 18.261 24.612 18.46 Z" style="paint-order: stroke; fill: rgb(185, 155, 0); stroke-width: 0.879;"/>
</svg>